<svg xmlns="http://www.w3.org/2000/svg" viewBox="0 0 100 85"><title>Any Pay</title><g id="Layer_2" data-name="Layer 2"><g id="Layer_1-2" data-name="Layer 1"><path d="M71.5,26H7.5A7.51,7.51,0,0,0,0,33.5v44A7.51,7.51,0,0,0,7.5,85h64A7.51,7.51,0,0,0,79,77.5v-44A7.51,7.51,0,0,0,71.5,26ZM76,77.5A4.5,4.5,0,0,1,71.5,82H7.5A4.5,4.5,0,0,1,3,77.5V58H76ZM3,41V33.5A4.5,4.5,0,0,1,7.5,29h64A4.5,4.5,0,0,1,76,33.5V41ZM15,6H94V58H82V55h9V9H18V23H15Zm85-6V51H97V3H23V0ZM24,70H9V67H24Zm6,6H9V73H30Zm40,0H58V67H70Z" fill="#9dbedf"/></g></g></svg>