<svg xmlns="http://www.w3.org/2000/svg" viewBox="0 0 99 78"><title>Deliery</title><g id="Layer_2" data-name="Layer 2"><g id="Layer_1-2" data-name="Layer 1"><path d="M11.5,55A11.5,11.5,0,1,0,23,66.5,11.51,11.51,0,0,0,11.5,55Zm0,20A8.5,8.5,0,1,1,20,66.5,8.51,8.51,0,0,1,11.5,75Z" fill="#9dbedf"/><path d="M61.5,55A11.5,11.5,0,1,0,73,66.5,11.51,11.51,0,0,0,61.5,55Zm0,20A8.5,8.5,0,1,1,70,66.5,8.51,8.51,0,0,1,61.5,75Z" fill="#9dbedf"/><path d="M63,0H7.5A7.51,7.51,0,0,0,0,7.5V49H63ZM60,46H3V7.5A4.5,4.5,0,0,1,7.5,3H60Z" fill="#9dbedf"/><path d="M85.5,18h-17v3h17A10.51,10.51,0,0,1,96,31.5v29A4.5,4.5,0,0,1,91.5,65h-15v3h15A7.51,7.51,0,0,0,99,60.5v-29A13.52,13.52,0,0,0,85.5,18Z" fill="#9dbedf"/><rect x="26" y="65" width="21" height="3" fill="#9dbedf"/><path d="M31.5,40A15.5,15.5,0,1,0,16,24.5,15.52,15.52,0,0,0,31.5,40ZM30,14.5h3V23h6.5v3H30Z" fill="#9dbedf"/></g></g></svg>