<svg xmlns="http://www.w3.org/2000/svg" viewBox="0 0 80 82.15"><title>Guaranty</title><g id="Layer_2" data-name="Layer 2"><g id="Layer_1-2" data-name="Layer 1"><path d="M40,82.15l-.62-.28C37.77,81.13,0,63.71,0,41.5V0H80V41.5c0,9.42-6.68,19.1-19.86,28.77A122.37,122.37,0,0,1,40.62,81.87ZM3,3V41.5c0,18.85,32.1,35,37,37.34,4.9-2.35,37-18.51,37-37.34V3Zm9,9V41.5c0,5.1,5.35,12,14.67,18.88a110.84,110.84,0,0,0,12.61,8l.72.39.72-.39a110.88,110.88,0,0,0,12.61-8C62.65,53.48,68,46.6,68,41.5V12ZM39,46.22,27.84,35.06,30,32.94l9,9,13-13,2.12,2.12Z" fill="#9dbedf"/></g></g></svg>