<svg xmlns="http://www.w3.org/2000/svg" viewBox="0 0 100 92"><title>money</title><g id="Layer_2" data-name="Layer 2"><g id="Layer_1-2" data-name="Layer 1"><path d="M89,84.5A4.5,4.5,0,0,1,84.5,89H3V28H84.5A4.5,4.5,0,0,1,89,32.5V41h3V32.5A7.51,7.51,0,0,0,84.5,25H0V92H84.5A7.51,7.51,0,0,0,92,84.5V76H89Z" fill="#9dbedf"/><path d="M67.77,48,59.6,58.5,67.77,69H100V48ZM97,66H69.23L63.4,58.5,69.23,51H97Z" fill="#9dbedf"/><circle cx="73.5" cy="58.5" r="4.5" fill="#9dbedf"/><path d="M59.5,23A11.5,11.5,0,1,0,48,11.5,11.51,11.51,0,0,0,59.5,23Z" fill="#9dbedf"/><path d="M26,22.5H46a11.5,11.5,0,0,0-23,0h3Z" fill="#9dbedf"/></g></g></svg>