<svg xmlns="http://www.w3.org/2000/svg" viewBox="0 0 99 64"><title>Refund</title><g id="Layer_2" data-name="Layer 2"><g id="Layer_1-2" data-name="Layer 1"><path d="M6,18V6H18A12,12,0,0,1,6,18ZM6,46V58H18A12,12,0,0,0,6,46ZM93,18V6H81A12,12,0,0,0,93,18Zm0,28A12,12,0,0,0,81,58H93ZM99,0V64H0V0ZM96,3H3V61H96ZM48,17v3a7.5,7.5,0,0,0,.5,15h2a4.5,4.5,0,0,1,0,9h-8v3H48v3h3V47a7.5,7.5,0,0,0-.5-15h-2a4.5,4.5,0,0,1,0-9h8V20H51V17Zm-12.9-.49L32.59,14H49.5A19.5,19.5,0,1,1,30,33.5H27A22.5,22.5,0,1,0,49.5,11H32.59L35.1,8.49,33,6.37,26.84,12.5,33,18.63Z" fill="#9dbedf"/></g></g></svg>