<svg xmlns="http://www.w3.org/2000/svg" viewBox="0 0 99 72"><title>Show Room</title><g id="Layer_2" data-name="Layer 2"><g id="Layer_1-2" data-name="Layer 1"><path d="M77,45.5A7.51,7.51,0,0,0,69.5,38h-40A7.51,7.51,0,0,0,22,45.5V53H19V72h3V65H77v7h3V53H77Zm-3,0V53H51V41H69.5A4.5,4.5,0,0,1,74,45.5Zm-49,0A4.5,4.5,0,0,1,29.5,41H48V53H25ZM77,62H22V56H77Z" fill="#9dbedf"/><path d="M8,35h5L10.82,20H2.36L.22,35H5V49H0V72H13V49H8Zm2,34H3V65h7Zm0-7H3V52h7Z" fill="#9dbedf"/><path d="M94,49V35h5L96.82,20H88.36L86.22,35H91V49H86V72H99V49Zm2,20H89V65h7Zm-7-7V52h7V62Z" fill="#9dbedf"/><path d="M64,0H35V20H64ZM61,17H38V3H61Z" fill="#9dbedf"/></g></g></svg>